<svg xmlns="http://www.w3.org/2000/svg" width="96" height="96" viewBox="0 0 96 96" fill="none">
  <rect x="1.5" y="1.5" width="93" height="93" rx="10.5" stroke="black" stroke-width="3"/>
  <path fill-rule="evenodd" clip-rule="evenodd" d="M38.5379 10.7335C33.5388 13.3424 29.4302 15.5451 29.4459 15.6388C29.4459 15.8732 41.4592 21.9502 41.881 21.9345C42.0685 21.9345 43.4745 21.2784 45.0055 20.4973L47.7862 19.0757L50.8169 20.6379L53.8476 22.2001L58.8154 19.9661C66.2827 16.6074 67.0639 16.2325 66.9389 16.1231C66.7827 15.9513 64.0957 14.514 56.8158 10.6866C53.3008 8.84322 49.8952 7.01543 49.239 6.65613C48.5829 6.28119 47.958 6 47.8487 6C47.7393 6 43.537 8.1246 38.5379 10.7335ZM16.5889 22.1064L11.3711 24.7934V36.6037C11.3711 43.1025 11.4336 48.414 11.5273 48.414C11.6054 48.414 14.1674 47.3048 17.2294 45.9457L22.7752 43.4774V31.0266L25.4778 32.4951C27.5712 33.6355 29.6489 34.7603 31.7423 35.9007L35.3041 37.8222L36.882 37.1036C37.8818 36.6505 38.866 36.1975 39.8502 35.7445C40.6157 35.3852 42.4903 34.5416 44.0213 33.8698C45.5522 33.1981 46.9582 32.5107 47.1613 32.3545C47.4269 32.1514 44.1775 30.3548 35.1479 25.7151C28.3367 22.2157 22.5409 19.3725 22.2753 19.3881C22.0097 19.4038 19.4477 20.6223 16.5889 22.1064ZM67.8606 22.8562C64.3144 24.4653 61.4087 25.8401 61.4087 25.9182C61.4087 25.9963 63.3458 27.1523 65.7047 28.4802C68.0793 29.8081 70.0008 30.9641 70.0008 31.0578C70.0008 31.1516 67.9074 32.167 65.3454 33.3074C62.7834 34.4635 56.3159 37.3848 50.9575 39.8062L33.0389 47.9141C28.5241 49.945 24.4624 51.7884 24.0094 51.9914C14.808 56.1625 12.2616 57.3186 11.9179 57.5217C11.5742 57.7248 11.4961 58.8808 11.4336 64.7078L11.3555 71.6597L16.0109 74.0342L20.6662 76.4088L27.1338 73.4874C30.68 71.8784 33.6013 70.488 33.6013 70.3786C33.6013 70.2693 32.9452 69.8475 32.1485 69.4257C31.3518 69.0039 29.6958 68.0666 28.4617 67.348C27.2431 66.6293 26.0246 65.9732 25.759 65.8795C25.4935 65.7858 25.2748 65.6452 25.2748 65.5358C25.2748 65.4421 28.118 64.0829 31.6017 62.5364C38.3504 59.5213 43.5057 57.1936 54.5818 52.1789C59.534 49.9449 64.4862 47.6954 69.454 45.4614C73.8126 43.493 78.8742 41.1966 80.702 40.353L84.0294 38.822L84.1076 31.7921L84.1857 24.7621L79.4678 22.3563C76.8745 21.0285 74.6406 19.9349 74.5312 19.9349C74.4062 19.9349 71.4068 21.2628 67.8606 22.8562ZM82.7797 48.2265C82.0767 48.5702 80.7019 49.2107 79.7178 49.6481C78.7336 50.0855 76.8589 50.9291 75.5623 51.5228L73.2033 52.6007L73.1565 58.7714C73.1252 62.1614 73.0003 64.9265 72.8753 64.9109C72.5941 64.864 68.173 62.5988 63.7207 60.2087C60.5026 58.4902 60.2995 58.4121 59.5496 58.7871C59.1122 59.0058 56.5033 60.1774 53.7538 61.3803C51.0043 62.5988 48.661 63.6611 48.5517 63.7705C48.4423 63.8642 53.9725 66.8637 60.8619 70.4411L73.3596 76.9399L78.7023 74.1748C81.6393 72.6595 84.1388 71.2691 84.2482 71.0973C84.5137 70.7067 84.4825 47.5548 84.2325 47.586C84.1232 47.6016 83.4671 47.8828 82.7797 48.2265ZM53.1914 75.3933C52.2697 75.7839 51.3324 76.1901 50.4107 76.5962C47.6143 77.7991 48.1611 77.846 44.8336 76.1901C42.6153 75.0809 41.6623 74.7528 41.2405 74.9091C40.9281 75.034 38.2567 76.2369 35.2885 77.5804C32.3359 78.9239 29.8052 80.0331 29.6802 80.0331C28.4304 80.0331 30.5082 81.2673 38.4754 85.2821L47.8174 90L51.7542 88.0629C53.9101 87.0006 58.2842 84.8603 61.4399 83.3137C64.6112 81.7672 67.1576 80.4705 67.1107 80.408C67.0639 80.3612 64.4081 79.002 61.2056 77.3773L55.3941 74.4404L53.1914 75.3933Z" fill="#111111"/>
</svg>