<svg width="631" height="806" viewBox="0 0 631 806" fill="none" xmlns="http://www.w3.org/2000/svg" style="">
<path d="M439.174 284.293L316.674 356.793C338.007 363.626 384.774 375.093 401.174 366.293C417.574 357.493 433.34 307.959 439.174 284.293Z" fill="#EEE6BC" stroke="black" class="KJuPYjQG_0"></path>
<path d="M7.42969 791.853C7.42969 749.562 9.18547 707.401 9.18547 665.144V596.766C9.18547 581.616 9.0633 566.46 9.18547 551.311C9.29599 537.606 12.2961 524.366 12.697 510.733C12.7273 509.705 12.3435 506.615 13.6725 505.855C14.2565 505.522 15.5599 506.021 15.2332 505.368C13.337 501.575 14.4528 495.768 14.4528 491.614C14.4528 481.636 15.3991 470.772 17.0865 460.985C20.1853 443.012 17.3095 424.155 19.33 405.971C21.5694 385.816 21.476 365.991 21.476 345.689V273.994V256.729C21.476 254.264 21.8024 257.186 22.8416 258.485C23.0304 258.721 23.1553 259.038 23.2351 259.354C23.233 259.21 23.2318 259.05 23.2318 258.875C23.2318 254.011 24.824 249.345 24.9875 244.439C25.4314 231.124 28.6862 215.395 32.8886 202.787C39.0325 184.356 47.3858 159.954 60.4934 145.334C68.1033 136.846 70.5262 124.64 77.8562 115.681C89.4863 101.466 102.927 93.1861 118.434 83.8818C134.084 74.4923 147.825 63.7744 162.329 52.6678C171.758 45.4473 183.391 34.6244 195.006 31.3058C210.123 26.9867 224.119 14.0406 240.266 14.0406C257.059 14.0406 273.159 6.59362 290.111 7.01743C315.849 7.66087 339.591 14.2972 361.903 25.4532C377.449 33.2261 394.197 39.7236 410.48 45.6447C428.86 52.3282 449.511 71.6052 463.544 85.6376C472.322 94.416 482.622 101.495 491.636 110.219C496.172 114.608 497.898 120.218 501.781 124.655C511.472 135.731 520.195 147.556 530.654 158.015C532.716 160.077 541.001 165.37 541.188 168.55C541.333 171.011 540.835 173.567 541.578 175.963C549.555 201.665 558.622 228.226 564.014 254.583C572.785 297.464 570.43 339.295 571.037 382.951C571.222 396.313 574.548 408.723 574.548 422.261C574.548 443.405 577.376 462.801 580.693 483.811C589.521 539.719 593.426 597.514 585.083 653.829C581.241 679.762 571.952 703.855 571.037 730.401C570.493 746.169 569.281 762.606 569.281 778.197C569.281 787.437 563.828 784.83 555.625 784.83C544.313 784.83 533.582 780.492 522.362 779.66C492.052 777.415 461.343 781.319 431.159 781.319C388.152 781.319 345.267 783.074 302.109 783.074H191.397C157.375 783.074 121.522 781.866 89.2688 794.487C73.4725 800.668 56.7739 798.807 40.3994 794.975C34.9349 793.696 11.5182 783.676 7.42969 791.853Z" fill="#FF1010" stroke="#111111" stroke-width="14" stroke-linecap="round" class="KJuPYjQG_1"></path>
<path d="M291.585 118.102C291.585 91.6293 293.5 39.2926 293.5 39.2926C293.5 39.2926 299.665 40.5655 305.441 40.2257C313.966 39.7243 321.371 43.2688 329.433 45.101C334.369 46.2229 339.427 49.0853 343.802 51.5158C350.289 55.1198 357.716 57.0075 364.073 61.0098C374.852 67.7968 385.316 75.8418 396.596 81.8579C411.094 89.5902 424.204 100.294 438.228 108.864C449.2 115.569 460.72 123.584 469.661 132.856C477.994 141.498 481.305 153.451 486.468 163.775C491.9 174.64 497.865 185.318 502.312 196.683C504.949 203.421 509.589 208.687 512.704 215.158C515.781 221.548 519.071 228.973 523.096 234.787C529.314 243.769 531.066 252.557 532.654 263.077C534.024 272.153 533.168 281.553 534.964 290.532C535.641 293.916 537.189 297.085 537.465 300.539C537.738 303.94 536.439 307.038 536.375 310.418C536.119 323.979 537.53 337.557 537.53 350.896C537.53 380.677 525.197 408.983 512.127 435.122C504.405 450.566 495.278 466.175 489.547 482.464C485.932 492.736 483.649 503.596 479.283 513.575C476.6 519.707 475.075 523.101 468.827 526.341C463.92 528.885 458.914 531.058 454.971 535.001C447.548 542.424 437.058 548.324 427.958 553.443L427.9 553.476C404.406 566.691 381.039 576.166 354.322 581.123C341.461 583.51 330.172 588.839 316.988 588.693C309.409 588.609 302.089 586.733 294.536 586.448C291.639 586.338 285.642 587.599 282.861 586.127C279.646 584.425 285.572 566.085 285.876 562.585C288.495 532.472 291.585 502.723 291.585 472.328C291.585 451.187 290.431 430.016 290.431 408.821C290.431 399.472 289.276 390.1 289.276 380.853C289.276 371.67 290.431 362.408 290.431 353.141C290.431 342.434 289.866 331.559 290.495 320.874C291.135 309.996 294.566 299.328 294.985 288.415C295.487 275.357 295.115 262.73 296.781 249.734C298.079 239.612 299.668 229.151 299.668 218.943C299.668 201.584 295.047 184.738 292.483 167.752C290.052 151.644 291.585 134.426 291.585 118.102Z" fill="#FFD302" stroke="white" stroke-width="3" stroke-linecap="round" class="KJuPYjQG_2"></path>
<path d="M311.013 361.038C308.643 365.44 307.419 368.418 307.159 373.509C306.81 380.341 310.072 387.713 312.098 390.317C313.901 392.636 319.643 396.479 320.111 399.053C321.255 405.349 321.255 411.5 321.255 417.917V417.97C321.255 430.743 322.183 443.902 320.773 456.588C320.321 460.659 319.946 470.77 321.798 474.843C323.586 478.778 327.18 477.544 331.015 477.614C337.068 477.724 346.5 481.364 351.619 476.529C356.111 472.287 360.548 469.143 364.693 464.48C372.812 455.346 375.391 443.456 381.983 433.393C382.957 431.907 386.2 423.463 387.405 423.392C392.921 423.068 398.685 425.561 404.335 425.561C422.439 425.561 435.448 413.507 446.386 400.137C450.631 394.95 453.398 387.699 456.689 381.823C460.115 375.704 457.999 390.88 457.652 393.269C456.32 402.449 453.568 411.424 452.23 420.621C450.577 431.989 449.571 443.199 446.447 454.359C443.496 464.896 439.849 474.9 436.265 485.205C433.736 492.475 428.614 502.318 428.614 510.147C428.614 512.661 439.773 505.167 440.784 504.725C448.694 501.264 458.257 496.77 464.46 490.567C476.574 478.453 481.673 461.296 489.101 446.165C493.05 438.121 495.456 428.042 498.017 419.416C501.245 408.544 504.474 397.732 508.259 387.064C512.484 375.159 518.302 363.237 520.79 350.796C521.514 347.176 524.014 339.386 526.213 336.638C529.961 331.953 532.34 326.475 536.515 321.938C542.243 315.712 547.243 308.937 553.323 303.021L553.794 302.562C560.059 296.469 566.05 290.641 570.915 283.26C575.092 276.923 582.306 272.627 586.338 266.03C596.442 249.496 601.074 228.963 607.545 210.844C615.244 189.287 618.626 168.098 623.209 145.839C625.062 136.837 628.135 127.946 629.776 119.089C631.6 109.235 630.318 98.3275 630.318 88.3036V70.4708C630.318 60.111 625.575 49.7423 621.642 40.3477C618.962 33.9437 619.04 33.0092 616.22 39.7453C614.677 43.4328 613.239 47.2217 611.882 50.951C608.636 59.8782 607.267 69.0231 602.665 77.5196C586.737 106.925 558.185 131.918 527.779 145.296C523.537 147.163 520.012 150.457 516.453 153.369C511.553 157.378 505.635 160.147 500.307 163.551C492.58 168.488 484.062 171.691 476.329 176.624C458.519 187.986 436.882 192.313 420.42 205.482C412.286 211.99 404.049 219.263 396.683 226.629C389.146 234.166 383.795 243.567 377.164 251.811C370.867 259.64 365.159 268.687 358.126 275.91C351.75 282.458 346.092 288.893 341.859 297.056C334.359 311.522 326.096 325.473 320.171 340.614C317.44 347.594 314.565 354.443 311.013 361.038Z" fill="#111111" class="KJuPYjQG_3"></path>
<path d="M257.857 117.546C257.742 110.181 260.932 96.2087 258.605 94.94C256.5 93.7926 245.864 96.1978 240.279 98.6799C234.839 101.098 230.145 106.008 224.53 108.03C215.783 111.179 207.178 114.606 198.434 117.754C193.549 119.512 189.381 122.606 184.388 124.111C180.487 125.288 177.371 126.914 174.083 129.306C164.42 136.333 153.702 141.631 144.454 149.293C124.251 166.033 110.621 188.563 94.5055 208.883C88.9882 215.839 86.5255 225.873 83.4104 234.065C79.4249 244.545 75.8104 255.222 71.7751 265.646C67.8233 275.855 65.5085 288.153 63.9628 298.973C62.4047 309.88 63.1883 321.701 64.2953 332.632C65.4558 344.093 66.8373 355.303 68.7832 366.624C69.8287 372.707 72.9348 378.377 74.1853 384.451C75.2332 389.541 74.5345 395.108 74.6008 400.283C74.7374 410.935 80.6375 420.489 85.8206 429.455C91.0878 438.565 97.6126 446.853 101.113 456.881C105.227 468.668 110.595 477.737 120.893 484.888C128.877 490.433 139.09 493.029 146.033 499.973C150.835 504.774 158.549 507.344 164.774 509.738C172.436 512.685 181.28 509.731 188.793 507.827C199.132 505.205 209.796 504.17 220.125 501.676C229.444 499.427 238.588 496.27 247.676 493.241C252.638 491.587 254.117 491.081 254.117 486.093C254.117 474.976 254.229 463.905 253.41 452.85C253.041 447.868 253.763 442.823 253.202 437.849C252.744 433.779 250.765 429.909 250.418 425.922C249.35 413.638 251.233 400.862 251.831 388.606C252.222 380.592 252.568 371.719 251.707 363.715C250.158 349.341 255.487 335.334 255.613 320.997C255.665 315.009 255.113 309.206 254.823 303.253C254.458 295.768 254.696 289.194 255.446 281.686C256.939 266.757 259.353 251.936 259.353 236.891C259.353 223.505 259.225 209.966 260.682 196.666C262.179 183.007 260.101 168.679 260.101 154.945C260.101 142.441 258.051 129.99 257.857 117.546Z" fill="#111111" stroke="white" stroke-width="3" stroke-linecap="round" class="KJuPYjQG_4"></path>
<path d="M126.131 289.65C123.777 288.524 121.753 285.837 120.024 283.891C121.068 287.024 120.605 290.579 121.509 293.795C123.017 299.156 124.342 304.731 125.306 310.229C126.678 318.057 130.198 325.383 134.055 332.257C136.357 336.362 138.256 340.664 140.694 344.692C143.001 348.504 144.287 353.511 147.682 356.522C152.67 360.947 159.495 363.336 165.73 365.271C170.861 366.864 176.905 366.427 182.219 366.427C185.398 366.427 188.579 366.546 191.738 366.17C196.004 365.662 200.631 364.447 204.614 362.795C208.077 361.359 212.25 360.845 215.949 360.337C221.491 359.577 227.223 359.73 232.713 358.632C234.038 358.367 238.759 357.294 238.875 355.202C238.931 354.191 234.931 353.198 234.18 352.891C232.324 352.131 230.821 350.802 229.063 349.865C225.938 348.198 223.277 345.823 220.534 343.628C217.209 340.969 213.807 338.679 210.153 336.457C203.331 332.308 195.857 329.274 189.189 324.829C187.144 323.466 184.573 321.197 182.017 321.197C178.707 321.197 175.779 320.672 172.7 319.4C169.506 318.081 165.62 315.952 163.346 313.274C161.299 310.863 158.807 308.32 156.193 306.542C153.483 304.699 150.459 303.496 147.59 301.902C144.911 300.413 142.242 299.053 139.502 297.683C138.12 296.992 136.789 296.345 135.357 295.758C134.03 295.213 132.139 294.833 130.992 293.978C129.186 292.634 128.202 290.641 126.131 289.65Z" fill="#EEE6BC" class="KJuPYjQG_5"></path>
<path d="M337.544 345.399C331.855 349.31 311.832 353.825 319.595 356.73C323.012 358.009 326.869 356.609 328.937 356.73C336.263 357.161 343.509 359.602 350.908 359.844C364.279 360.283 375.709 369.965 388.924 369.965C400.554 369.965 409.376 366.281 416.474 356.817C427.467 342.159 433.947 324.189 437.752 306.302C438.914 300.842 439.656 293.847 438.098 288.396C437.664 286.878 437.884 285.161 436.368 287.056C435.562 288.064 433.4 289.036 432.303 289.78C425.821 294.179 418.534 297.422 412.235 302.063C406.083 306.597 399.799 310.8 393.508 315.125C387.607 319.182 381.328 324.113 374.825 327.148C368.413 330.14 361.901 331.886 355.406 334.543C349.008 337.161 343.223 341.494 337.544 345.399Z" fill="#EEE6BC" class="KJuPYjQG_6"></path>
<style data-made-with="vivus-instant">.KJuPYjQG_0{stroke-dasharray:321 323;stroke-dashoffset:322;animation:KJuPYjQG_draw_0 5000ms ease-in-out 0ms infinite,KJuPYjQG_fade 5000ms linear 0ms infinite;}.KJuPYjQG_1{stroke-dasharray:2439 2441;stroke-dashoffset:2440;animation:KJuPYjQG_draw_1 5000ms ease-in-out 0ms infinite,KJuPYjQG_fade 5000ms linear 0ms infinite;}.KJuPYjQG_2{stroke-dasharray:1378 1380;stroke-dashoffset:1379;animation:KJuPYjQG_draw_2 5000ms ease-in-out 0ms infinite,KJuPYjQG_fade 5000ms linear 0ms infinite;}.KJuPYjQG_3{stroke-dasharray:1447 1449;stroke-dashoffset:1448;animation:KJuPYjQG_draw_3 5000ms ease-in-out 0ms infinite,KJuPYjQG_fade 5000ms linear 0ms infinite;}.KJuPYjQG_4{stroke-dasharray:1042 1044;stroke-dashoffset:1043;animation:KJuPYjQG_draw_4 5000ms ease-in-out 0ms infinite,KJuPYjQG_fade 5000ms linear 0ms infinite;}.KJuPYjQG_5{stroke-dasharray:315 317;stroke-dashoffset:316;animation:KJuPYjQG_draw_5 5000ms ease-in-out 0ms infinite,KJuPYjQG_fade 5000ms linear 0ms infinite;}.KJuPYjQG_6{stroke-dasharray:321 323;stroke-dashoffset:322;animation:KJuPYjQG_draw_6 5000ms ease-in-out 0ms infinite,KJuPYjQG_fade 5000ms linear 0ms infinite;}@keyframes KJuPYjQG_draw{100%{stroke-dashoffset:0;}}@keyframes KJuPYjQG_fade{0%{stroke-opacity:1;}90%{stroke-opacity:1;}100%{stroke-opacity:0;}}@keyframes KJuPYjQG_draw_0{10%{stroke-dashoffset: 322}70%{ stroke-dashoffset: 0;}100%{ stroke-dashoffset: 0;}}@keyframes KJuPYjQG_draw_1{10%{stroke-dashoffset: 2440}70%{ stroke-dashoffset: 0;}100%{ stroke-dashoffset: 0;}}@keyframes KJuPYjQG_draw_2{10%{stroke-dashoffset: 1379}70%{ stroke-dashoffset: 0;}100%{ stroke-dashoffset: 0;}}@keyframes KJuPYjQG_draw_3{10%{stroke-dashoffset: 1448}70%{ stroke-dashoffset: 0;}100%{ stroke-dashoffset: 0;}}@keyframes KJuPYjQG_draw_4{10%{stroke-dashoffset: 1043}70%{ stroke-dashoffset: 0;}100%{ stroke-dashoffset: 0;}}@keyframes KJuPYjQG_draw_5{10%{stroke-dashoffset: 316}70%{ stroke-dashoffset: 0;}100%{ stroke-dashoffset: 0;}}@keyframes KJuPYjQG_draw_6{10%{stroke-dashoffset: 322}70%{ stroke-dashoffset: 0;}100%{ stroke-dashoffset: 0;}}</style></svg>
