<svg width="1555" height="187" viewBox="0 0 1555 187" fill="none" xmlns="http://www.w3.org/2000/svg">
<path d="M639.946 38.3371C639.946 43.4451 640.707 54.6612 637.611 58.917L638.39 124.289C638.39 132.314 640.416 139.811 642.108 147.636C644.119 156.939 641.407 177.254 633.115 183.089C628.494 186.34 619.065 165.498 617.81 162.249C612.238 147.83 615.581 130.634 614.091 115.555C612.153 95.9307 615.043 76.365 615.043 56.7553C615.043 46.8365 614.76 36.1322 616.253 26.3177C617.288 19.52 620.696 12.7684 623.949 6.77535C629.07 -2.65807 635.018 14.6825 636.055 18.3624C637.976 25.183 639.946 31.214 639.946 38.3371Z" fill="#292929" stroke="#111111" stroke-width="6.25755" stroke-linecap="round"/>
<path d="M600.068 51.2854C603.138 49.3962 610.24 52.317 614.414 52.317L613.893 138.358C606.975 133.747 593.435 135.151 585.541 135.151C570.958 135.151 556.327 134.223 541.702 134.223C524.007 134.223 508.058 129.617 490.857 126.805C475.972 124.372 460.838 124.636 445.834 123.302C425.268 121.474 404.321 124.024 383.759 124.024C357.755 124.024 331.912 124.772 305.921 123.972C280.657 123.195 255.702 120.223 230.645 117.239L229.216 117.069C207.773 114.516 185.984 116.592 164.514 114.803C128.108 111.769 78.4317 112.976 42.3697 106.549C21.6482 102.856 6.112 103.552 4.09875 76.3729C2.9129 60.3641 12.574 42.886 21.8712 30.3706C26.2111 24.5284 27.9722 25.7142 34.6467 27.3828C43.2268 29.5278 50.7402 30.3706 59.5779 30.3706C65.4772 30.3706 73.334 29.6051 79.1551 29.4434C82.4515 29.3518 85.5756 26.7646 88.5822 26.7646C98.2911 26.7646 108.774 32.0073 118.1 34.0797C128.644 36.4228 138.156 37.7887 149.112 37.7887C163.589 37.7887 177.975 36.8614 192.487 36.8614C218.028 36.8614 242.897 42.425 268.367 42.425C279.975 42.425 291.525 39.6432 303.191 39.6432C311.306 39.6432 318.97 41.2228 326.939 42.2189C334.002 43.1019 341.149 42.8417 348.163 43.8159C364.859 46.1348 381.379 46.1344 398.189 46.134L398.853 46.134H415.286C421.752 46.134 427.814 48.8001 434.295 48.9158C450.98 49.2137 467.698 49.0175 484.315 48.04C496.72 47.3103 509.471 46.1906 521.921 47.1128C533.296 47.9554 544.293 48.9158 555.765 48.9158C564.758 48.9158 574.036 48.0878 582.862 50.0491C587.999 51.1908 594.899 54.4661 600.068 51.2854Z" fill="#292929" stroke="#111111" stroke-width="6.25755" stroke-linecap="round"/>
<path d="M665.606 59.3965C656.208 57.5691 651.535 55.4535 642 54.5L631.5 59.3965L627.5 105L631.5 122.5L639 125C689.223 125 732.225 123.078 783.096 123.078C848.214 123.078 913.387 126.562 978.591 126.562C1042.91 126.562 1107.38 126.813 1171.67 128.4C1240.97 130.112 1308.59 128.228 1377.52 121.335C1422.59 116.829 1469.62 110.344 1507.59 83.0107C1526.39 69.4736 1534.49 49.283 1548.24 32.1047C1558.57 19.1913 1537.1 22.0396 1530.33 22.0396C1510.77 22.0396 1494.81 34.7931 1475.26 35.8791C1438.15 37.9408 1400.5 41.0455 1363.77 46.428C1342.51 49.5438 1319.67 51.1294 1298.16 51.6541C1281.42 52.0624 1265.7 56.8802 1248.9 56.8802C1204.59 56.8802 1160.81 56.0036 1116.6 59.9772C1079.18 63.3408 1041.24 58.6223 1003.95 58.6223C957.462 58.6223 911.022 60.3643 864.584 60.3643C817.819 60.3643 771.368 63.057 724.641 60.4611C705.264 59.3846 684.723 63.1139 665.606 59.3965Z" fill="#C6C6C6" stroke="#111111" stroke-width="6.25755" stroke-linecap="round"/>
<path d="M260.371 92.3272C269.822 88.5471 274.42 81.9396 279.64 73.7358C282.149 69.7931 281.071 68.4935 285.85 71.4024C295.692 77.3934 302.581 87.1242 312.533 93.0046C320.16 97.5117 327.456 100.191 335.415 95.5638C343.169 91.0552 350.351 86.6133 355.248 78.7788C356.808 76.2823 358.834 70.8867 361.608 73.6605C365.556 77.6082 370.295 80.2904 374.479 83.8971C380.359 88.9657 386.351 93.7716 392.694 98.2734C395.468 100.242 396.51 98.8865 399.393 97.7466C410.027 93.5425 420.071 89.6405 429.877 83.6713C433.268 81.6073 435.805 78.2895 439.888 79.4562C442.578 80.2249 444.875 81.8096 447.302 83.1444C452.121 85.7949 456.692 88.984 461.565 91.4992C469.487 95.5878 476.406 101.405 484.221 105.499C488.215 107.591 493.959 104.721 497.845 103.166C503.754 100.802 509.056 97.2225 514.404 93.8326C519.091 90.8622 524.508 86.9063 527.953 82.5046C531.086 78.5007 531.892 81.0618 534.727 83.8971C542.88 92.0498 551.57 101.735 561.523 107.569C564.944 109.575 567.46 112.291 571.458 110.618C574.251 109.448 576.809 107.703 579.587 106.44C584.136 104.373 588.857 99.7225 592.458 96.2412C596.097 92.7237 599.491 89.0732 603.146 85.553L612.5 79.4562L615.5 136H607.5" stroke="#111111" stroke-width="6.25755" stroke-linecap="round"/>
</svg>
