<svg width="744" height="135" viewBox="0 0 744 135" fill="none" xmlns="http://www.w3.org/2000/svg">
<path d="M32.2137 19.7978C20.8224 10.6322 17.5777 15.3534 4.06154 16.5618C4.06154 21.5937 3.67425 23.6483 6.02227 28.427C6.44188 29.281 10.2743 31.6815 9.59714 32.382C6.63056 35.451 6.65144 35.9283 5.57541 39.9326C3.07171 49.2497 -1.13182 52.6987 10.4909 55.3933C15.1712 56.4783 30.113 57.4419 25.2372 63.8427C16.9214 74.7597 7.23048 81.6004 20.7686 90.809C24.1657 93.1196 49.3979 105.115 32.6104 105.551C27.0277 105.695 1.86689 109.086 2.00053 109.146C5.84559 110.886 9.4195 118.34 9.93229 121.64C11.1063 129.197 44.5993 124.966 54.0597 124.966H197.278C232.323 124.966 268.717 122.564 303.631 125.685C328.523 127.911 354.801 127.482 387.5 130C499.568 138.629 482.571 127.326 494.5 124.067C530.726 114.172 513 124.067 513 124.067C513 124.067 563.076 128.553 585.376 124.067C600.655 120.994 626.289 117.136 641.345 120.921C659.978 125.606 681.626 120.112 700.666 120.112C706.758 120.112 730.484 122.633 733.51 118.494C741.513 107.547 737.978 90.0475 737.978 77.6854C737.978 72.5423 737.75 67.3621 737.978 62.2247C738.165 58.0224 742 54.0502 742 49.6404V28.6966C742 23.893 731.623 14.5429 727.944 10.1141C722.18 14.7583 720.345 18.0606 712.557 16.9213C709.434 16.4643 697.614 18.2171 695.8 15.6629C690.04 7.55241 665.166 16.9014 657.147 10.4494C654.348 8.19745 640.469 10.1405 637.262 10.0899C631.823 10.0041 634.16 6.20516 630.335 5.32584C619.905 2.92799 603.454 4.58039 592.799 5.32584C574.749 6.58876 556.133 15.7907 538.282 19.0787C534.43 19.7883 524.804 21.0269 520.855 19.4382C510.837 15.408 500.418 20.3361 488.122 22.0449C480.15 23.153 450.682 29.8914 444.33 22.2247C442.391 19.8842 438.339 13.6395 435.951 12.0674C432.237 9.62243 400.753 20.4967 395.064 21.0562C388.004 21.7504 385.503 21.9742 380.876 19.0787C377.35 16.872 360.693 19.7978 356.299 19.7978C350.804 19.7978 342.276 21.3341 337.866 18.1798C329.474 12.1781 319.337 9.67378 307.032 7.03371C295.821 4.62806 279.497 11.9348 269.496 14.6742C262.603 16.5623 257.5 16.5621 250.323 16.5618L250.058 16.5618C238.753 16.5618 220.226 20.315 212.298 12.2472C209.622 9.52423 206.709 2 202.02 2C187.416 2 173.741 9.61255 159.457 11.5281C149.01 12.9291 138.393 14.741 127.842 15.8427C120.847 16.573 100.655 13.2798 94.9976 16.9213C92.5181 18.5174 89.7298 18.4252 86.3955 18.0899C78.3553 17.2812 79.3454 14.6013 71.314 17.3708C66.8273 18.918 63.2158 21.2202 58.355 21.4157C46.2956 21.9009 41.3321 27.1346 32.2137 19.7978Z" fill="#111111"/>
<path d="M727.974 10.0899C722.186 14.7468 720.359 18.0626 712.557 16.9213C709.434 16.4643 697.614 18.2171 695.8 15.6629C690.04 7.55241 665.166 16.9014 657.147 10.4494C654.348 8.19745 640.469 10.1405 637.262 10.0899C631.822 10.0041 634.16 6.20516 630.335 5.32584C619.905 2.92799 603.454 4.58039 592.799 5.32584C574.749 6.58876 556.133 15.7907 538.282 19.0787C534.43 19.7883 524.804 21.0269 520.855 19.4382C510.837 15.408 500.418 20.3361 488.122 22.0449C480.15 23.153 450.682 29.8914 444.33 22.2247C442.391 19.8842 438.339 13.6395 435.951 12.0674C432.237 9.62243 400.753 20.4967 395.064 21.0562C388.004 21.7504 385.503 21.9742 380.876 19.0787C377.35 16.872 360.693 19.7978 356.299 19.7978C350.804 19.7978 342.276 21.3341 337.866 18.1798C329.474 12.1781 319.337 9.67378 307.032 7.03371C295.821 4.62806 279.497 11.9348 269.496 14.6742C262.518 16.5855 257.375 16.5618 250.058 16.5618C238.753 16.5618 220.226 20.315 212.298 12.2472C209.622 9.52423 206.709 2 202.02 2C187.416 2 173.741 9.61255 159.457 11.5281C149.01 12.9291 138.393 14.741 127.842 15.8427C120.847 16.573 100.655 13.2798 94.9976 16.9213C92.5181 18.5174 89.7298 18.4252 86.3955 18.0899C78.3553 17.2812 79.3454 14.6013 71.314 17.3708C66.8273 18.918 63.2158 21.2202 58.355 21.4157C46.2956 21.9009 41.3321 27.1346 32.2137 19.7978C20.8224 10.6322 17.5777 15.3534 4.06154 16.5618C4.06154 21.5937 3.67425 23.6483 6.02227 28.427C6.44188 29.281 10.2743 31.6815 9.59714 32.382C6.63056 35.451 6.65144 35.9283 5.57541 39.9326C3.07171 49.2497 -1.13182 52.6987 10.4909 55.3933C15.1712 56.4783 30.113 57.4419 25.2372 63.8427C16.9214 74.7597 7.23048 81.6005 20.7686 90.809C24.1657 93.1196 49.3979 105.115 32.6104 105.551C27.0277 105.695 1.86689 109.086 2.00053 109.146C5.84559 110.886 9.4195 118.34 9.93229 121.64C11.1063 129.197 44.5993 124.966 54.0597 124.966H197.278C232.323 124.966 268.717 122.564 303.631 125.685C328.523 127.911 354.8 127.482 387.5 130C499.568 138.629 482.571 127.326 494.5 124.067C530.726 114.172 513 124.067 513 124.067C513 124.067 563.076 128.553 585.376 124.067C600.655 120.994 626.289 117.136 641.345 120.921C659.978 125.606 681.626 120.112 700.666 120.112C706.758 120.112 730.484 122.633 733.51 118.494C741.513 107.547 737.978 90.0475 737.978 77.6854C737.978 72.5423 737.75 67.3621 737.978 62.2247C738.165 58.0224 742 54.0502 742 49.6404V28.6966C742 23.8842 731.585 14.5087 727.924 10.0899" stroke="#E9B959" stroke-width="3" stroke-linecap="round"/>
</svg>
