<svg xmlns="http://www.w3.org/2000/svg" width="96" height="96" viewBox="0 0 96 96" fill="none">
  <rect x="1.5" y="1.5" width="93" height="93" rx="10.5" stroke="black" stroke-width="3"/>
  <path d="M80.6245 82.4438C80.3662 82.9143 79.9864 83.3069 79.5247 83.5806C79.063 83.8543 78.5363 83.9992 77.9995 84H59.9995C59.4946 83.9998 58.9979 83.8723 58.5554 83.6291C58.113 83.3859 57.739 83.0349 57.4683 82.6087L42.2845 58.7475L20.2195 83.0175C19.6816 83.5953 18.9377 83.9378 18.1489 83.9708C17.3602 84.0037 16.5903 83.7245 16.0061 83.1935C15.4218 82.6626 15.0704 81.9228 15.028 81.1345C14.9856 80.3463 15.2556 79.573 15.7795 78.9825L38.9433 53.4825L15.4683 16.6125C15.1791 16.1589 15.0173 15.6359 14.9997 15.0983C14.982 14.5607 15.1093 14.0283 15.368 13.5567C15.6268 13.0852 16.0076 12.6918 16.4706 12.418C16.9335 12.1441 17.4616 11.9997 17.9995 12H35.9995C36.5044 12.0002 37.0011 12.1277 37.4436 12.3709C37.8861 12.6141 38.26 12.9651 38.5308 13.3913L53.7145 37.2525L75.7795 12.9825C76.3174 12.4047 77.0614 12.0622 77.8501 12.0292C78.6388 11.9963 79.4088 12.2755 79.993 12.8065C80.5772 13.3374 80.9286 14.0772 80.971 14.8655C81.0134 15.6537 80.7434 16.427 80.2195 17.0175L57.0558 42.4988L80.5308 79.3913C80.8183 79.8451 80.9786 80.3677 80.9951 80.9047C81.0116 81.4416 80.8836 81.9732 80.6245 82.4438Z" fill="#111111"/>
</svg>